# xmcd
#
# Track frame offsets:
#	150
#	13666
#	28173
#	44807
#	59739
#	71632
#	84386
#	96081
#	112676
#	123886
#	138231
#	151428
#	163842
#	175249
#	189166
#
# Disc length: 2709 seconds
# Revision: 2
# Processed by: cddbd v1.5.2PL0 Copyright (c) Steve Scherf et al.
# Submitted via: dBpowerAMP V12.0
#
DISCID=c80a930f
DTITLE=Charlie Rich - The Great Charlie Rich CD 1
DYEAR=2003
DGENRE=Country
TTITLE0=Behind Closed Doors
TTITLE1=On My Knees
TTITLE2=Life Has Its Little Ups And Downs
TTITLE3=A Woman Left Lonely
TTITLE4=Set Me Free
TTITLE5=A Very Special Love Song
TTITLE6=Daddy Don't You Walk So Fast
TTITLE7=My Elusive Dreams
TTITLE8=I Love My Friend
TTITLE9=A Sunday Kind Of Woman
TTITLE10=Spanish Eyes
TTITLE11=Rollin' With The Flow
TTITLE12=Papa Was A Good Man
TTITLE13=Every Time You Touch Me (I Get High)
TTITLE14=Since I Fell For You
EXTD=
EXTT0=
EXTT1=
EXTT2=
EXTT3=
EXTT4=
EXTT5=
EXTT6=
EXTT7=
EXTT8=
EXTT9=
EXTT10=
EXTT11=
EXTT12=
EXTT13=
EXTT14=
PLAYORDER=
